<mxfile host="app.diagrams.net" modified="2023-04-20T10:59:38.186Z" agent="Mozilla/5.0 (Windows NT 10.0; Win64; x64) AppleWebKit/537.36 (KHTML, like Gecko) Chrome/112.0.0.0 Safari/537.36" version="21.2.1" etag="S8VqyN9uoEsJB4VSHX-E" type="github">
  <diagram name="Page-1" id="zim6MFw6lcNOP7sRVycw">
    <mxGraphModel>
      <root>
        <mxCell id="0" />
        <mxCell id="1" parent="0" />
      </root>
    </mxGraphModel>
  </diagram>
</mxfile>
